<?xml version="1.0" encoding="iso-8859-1"?>
<!-- Generator: Adobe Illustrator 16.0.0, SVG Export Plug-In . SVG Version: 6.00 Build 0)  -->
<!DOCTYPE svg PUBLIC "-//W3C//DTD SVG 1.1//EN" "http://www.w3.org/Graphics/SVG/1.1/DTD/svg11.dtd">
<svg version="1.1" width="25px" height="25px" fill="#ffffff" id="Capa_1" xmlns="http://www.w3.org/2000/svg" xmlns:xlink="http://www.w3.org/1999/xlink" x="0px" y="0px"
	 viewBox="0 0 681.371 681.371" style="enable-background:new 0 0 681.371 681.371;"
	 xml:space="preserve">
<g>
	<g>
		<path d="M60.659,369.475h92.172c14.319,0,25.974-9.678,25.974-23.986c0-14.294-11.646-23.997-25.974-23.997H60.645
			c-14.314,0-25.959,9.697-25.959,23.997C34.686,359.797,46.341,369.475,60.659,369.475z M60.659,340.685h92.158
			c3.743,0,6.794,1.075,6.794,4.803s-3.042,4.793-6.78,4.793H60.659c-3.738,0-6.78-1.064-6.78-4.793S56.931,340.685,60.659,340.685z
			"/>
		<path d="M178.805,484.641c0-14.293-11.646-23.996-25.974-23.996H60.64c-14.309,0-25.955,9.707-25.955,23.996
			c0,14.314,11.655,23.988,25.974,23.988h92.172C167.15,508.629,178.805,498.955,178.805,484.641z M53.879,484.641
			c0-3.729,3.052-4.803,6.78-4.803h92.153c3.748,0,6.799,1.074,6.799,4.803s-3.042,4.795-6.78,4.795H60.659
			C56.921,489.436,53.879,488.375,53.879,484.641z"/>
		<path d="M60.659,220.726h92.172c0.01,0,0.02,0,0.029,0c14.304,0,25.945-9.722,25.945-23.992c0-14.28-11.641-23.992-25.974-23.992
			H60.635c-14.309,0-25.95,9.712-25.95,23.992C34.686,211.004,46.327,220.726,60.659,220.726z M60.659,191.935h92.148
			c3.752,0,6.804,1.07,6.804,4.798c0,3.719-3.052,4.798-6.799,4.798H60.688c-3.752,0-6.809-1.075-6.809-4.798
			C53.879,193.01,56.936,191.935,60.659,191.935z"/>
		<path d="M544.029,0H173.205C122.52,0,70.88,50.109,70.88,100.799v53.704c0,5.302,6.185,8.642,11.487,8.642h70.469
			c17.773,0,32.236,15.811,32.236,33.584c-0.005,17.759-14.472,33.593-32.241,33.593H82.367c-5.297,0-11.487,2.543-11.487,7.845
			v65.685c0,5.302,6.185,8.042,11.487,8.042h70.469c17.773,0,32.236,15.816,32.236,33.59c0,17.754-14.467,33.588-32.236,33.588
			H82.367c-5.297,0-11.487,3.129-11.487,8.43v55.734c0,5.303,6.185,7.811,11.487,7.811h70.469c17.773,0,32.236,15.816,32.236,33.59
			c0,17.754-14.467,33.588-32.236,33.588H82.367c-5.297,0-11.487,3.359-11.487,8.662v53.693c0,50.686,51.64,100.791,102.325,100.791
			h370.824c50.699,0,102.656-50.105,102.656-100.791V100.799C646.686,50.109,594.733,0,544.029,0z M627.492,580.58
			c0,40.24-43.21,81.596-83.463,81.596H173.205c-40.244,0-83.132-41.355-83.132-81.596v-43.162h62.768
			c28.349,0,51.419-24.451,51.419-52.781c0-28.354-23.07-52.783-51.429-52.783H90.073v-33.588h62.768
			c28.354,0,51.419-24.457,51.419-52.781c0-28.354-23.07-52.783-51.429-52.783H90.073v-43.186h62.768
			c28.354,0,51.419-24.457,51.419-52.787c0-28.354-23.07-52.777-51.429-52.777H90.073v-43.152c0-40.244,42.888-81.606,83.132-81.606
			h370.824c40.253,0,83.463,41.362,83.463,81.606V580.58z"/>
		<path d="M484.663,410.209c-5.676-9.828-16.285-15.936-27.687-15.936c-5.57,0-11.069,1.473-15.892,4.256
			c-8.763,5.053-15.298,7.787-24.707,7.787c-2.261,0-4.679-0.168-7.174-0.498c-13.397-1.789-31.713-19.674-46.674-45.551
			c-14.74-25.533-21.593-51.684-16.65-63.622c5.619-13.656,13.152-18.824,22.418-24.16c15.235-8.771,20.494-28.311,11.713-43.569
			l-22.293-38.574c-5.581-9.712-15.614-15.513-26.843-15.513c-5.681,0-11.338,1.531-16.353,4.429l-13.973,8.052
			c-18.876,10.902-24.692,30.345-28.162,49.707c-7.399,40.618,6.617,93.137,40.532,151.892
			c33.435,57.859,72.94,97.293,111.255,111.055c12.423,4.453,23.09,6.611,32.596,6.611c9.208,0,17.466-2.078,24.553-6.17
			l13.93-8.053c15.226-8.781,20.471-28.314,11.689-43.559L484.663,410.209z M485.661,475.73l-13.938,8.057
			c-9.362,5.412-22.433,4.783-41.065-1.895c-33.545-12.045-70.401-49.438-101.111-102.586
			c-31.611-54.754-44.845-102.771-38.267-138.879c3.685-20.547,8.973-30.782,18.862-36.487l13.973-8.057
			c2.111-1.219,4.453-1.862,6.766-1.862c4.333,0,8.052,2.14,10.211,5.902l22.298,38.579c3.498,6.075,1.401,13.858-4.673,17.351
			c-11.143,6.42-22.687,14.294-30.576,33.469c-7.514,18.147-0.878,48.257,17.773,80.546c18.368,31.793,41.084,52.346,60.767,54.975
			c3.34,0.441,6.604,0.668,9.698,0.668c15.071,0,25.206-5.115,34.294-10.355c1.909-1.1,4.093-1.689,6.3-1.689
			c4.563,0,8.806,2.434,11.065,6.338l22.279,38.57C493.818,464.445,491.731,472.229,485.661,475.73z"/>
	</g>
</g>
<g>
</g>
<g>
</g>
<g>
</g>
<g>
</g>
<g>
</g>
<g>
</g>
<g>
</g>
<g>
</g>
<g>
</g>
<g>
</g>
<g>
</g>
<g>
</g>
<g>
</g>
<g>
</g>
<g>
</g>
</svg>
