<?xml version="1.0" encoding="iso-8859-1"?>
<!-- Uploaded to: SVG Repo, www.svgrepo.com, Generator: SVG Repo Mixer Tools -->
<svg fill="#000000" version="1.1" id="Layer_1" xmlns="http://www.w3.org/2000/svg" xmlns:xlink="http://www.w3.org/1999/xlink" 
	 viewBox="0 0 496 496" xml:space="preserve">
<g>
	<g>
		<g>
			<path d="M64,400c-17.648,0-32,14.352-32,32s14.352,32,32,32s32-14.352,32-32S81.648,400,64,400z M64,448c-8.824,0-16-7.176-16-16
				c0-8.824,7.176-16,16-16c8.824,0,16,7.176,16,16C80,440.824,72.824,448,64,448z"/>
			<path d="M440,368.552V232h-32V56H88v176H72V40C72,17.944,54.056,0,32,0H0v16h32c13.232,0,24,10.768,24,24v328.552
				C24.48,372.512,0,399.424,0,432c0,35.288,28.712,64,64,64c26.8,0,49.768-16.576,59.288-40h249.424
				c9.52,23.424,32.488,40,59.288,40c35.288,0,64-28.712,64-64C496,399.424,471.52,372.512,440,368.552z M224,72h48v64h-48V72z
				 M104,72h104v80h80V72h104v160H288h-80H104V72z M272,248v96h-48v-96H272z M64,480c-26.472,0-48-21.528-48-48s21.528-48,48-48
				s48,21.528,48,48S90.472,480,64,480z M368.552,440H127.448c0.328-2.624,0.552-5.288,0.552-8c0-2.712-0.224-5.376-0.552-8H368.56
				c-0.336,2.624-0.56,5.288-0.56,8C368,434.712,368.224,437.376,368.552,440z M123.288,408
				c-8.552-21.048-27.984-36.52-51.288-39.448V248h136v112h80V248h136v120.552c-8.216,1.032-15.968,3.592-22.912,7.448H392v6.12
				c-8.456,6.792-15.144,15.68-19.288,25.88H123.288z M432,480c-26.472,0-48-21.528-48-48s21.528-48,48-48s48,21.528,48,48
				S458.472,480,432,480z"/>
			<path d="M432,400c-17.648,0-32,14.352-32,32s14.352,32,32,32s32-14.352,32-32S449.648,400,432,400z M432,448
				c-8.824,0-16-7.176-16-16c0-8.824,7.176-16,16-16c8.824,0,16,7.176,16,16C448,440.824,440.824,448,432,448z"/>
			<rect x="360" y="200" width="16" height="16"/>
			<rect x="328" y="200" width="16" height="16"/>
			<rect x="360" y="168" width="16" height="16"/>
			<rect x="360" y="376" width="16" height="16"/>
			<rect x="392" y="344" width="16" height="16"/>
		</g>
	</g>
</g>
</svg>