<svg xmlns="http://www.w3.org/2000/svg" xmlns:xlink="http://www.w3.org/1999/xlink" viewBox="0 0 27 27">
    <path fill-rule="evenodd" fill="white" d="M13.718,21.320 C13.589,21.320 13.467,21.261 13.384,21.163 C13.151,20.884 7.678,14.309 7.678,11.091 C7.678,7.758 10.387,5.046 13.718,5.046 C17.049,5.046 19.759,7.758 19.759,11.091 C19.759,14.309 14.286,20.884 14.052,21.163 C13.970,21.261 13.847,21.320 13.718,21.320 ZM13.718,5.918 C10.868,5.918 8.549,8.238 8.549,11.091 C8.549,13.571 12.525,18.707 13.718,20.193 C14.912,18.707 18.887,13.571 18.887,11.091 C18.887,8.238 16.569,5.918 13.718,5.918 ZM10.807,11.091 C10.807,9.485 12.113,8.177 13.718,8.177 C15.324,8.177 16.630,9.485 16.630,11.091 C16.630,12.696 15.324,14.004 13.718,14.004 C12.113,14.004 10.807,12.696 10.807,11.091 ZM15.758,11.091 C15.758,9.965 14.843,9.050 13.718,9.050 C12.594,9.050 11.679,9.965 11.679,11.091 C11.679,12.216 12.594,13.131 13.718,13.131 C14.843,13.131 15.758,12.216 15.758,11.091 ZM25.558,18.550 C25.459,18.770 25.201,18.866 24.981,18.767 C24.762,18.667 24.665,18.408 24.764,18.190 C25.479,16.612 25.842,14.928 25.842,13.182 C25.842,6.494 20.403,1.052 13.718,1.052 C7.033,1.052 1.595,6.494 1.595,13.182 C1.595,19.870 7.033,25.313 13.718,25.313 C17.399,25.313 19.424,23.857 20.092,22.495 C20.507,21.646 20.437,20.761 19.899,20.067 C19.677,19.773 19.135,19.074 18.518,18.426 C18.352,18.252 18.358,17.976 18.532,17.810 C18.706,17.643 18.982,17.649 19.149,17.824 C19.797,18.504 20.364,19.235 20.577,19.518 C21.338,20.501 21.442,21.721 20.875,22.879 C20.091,24.477 17.800,26.186 13.718,26.186 C6.553,26.186 0.723,20.352 0.723,13.182 C0.723,6.013 6.553,0.179 13.718,0.179 C20.884,0.179 26.714,6.013 26.714,13.182 C26.714,15.053 26.325,16.859 25.558,18.550 Z">
    </path>
</svg>
