<?xml version="1.0" encoding="iso-8859-1"?>
<!-- Uploaded to: SVG Repo, www.svgrepo.com, Generator: SVG Repo Mixer Tools -->
<svg fill="#000000" version="1.1" id="Layer_1" xmlns="http://www.w3.org/2000/svg" xmlns:xlink="http://www.w3.org/1999/xlink" 
	 viewBox="0 0 496 496" xml:space="preserve">
<g>
	<g>
		<g>
			<path d="M0,0v496h384V68.688L315.312,0H0z M368,480H16V16h288v64h64V480z M320,27.312L356.688,64H320V27.312z"/>
			<rect x="32" y="48" width="72" height="16"/>
			<rect x="304" y="112" width="48" height="16"/>
			<path d="M171.312,240H272V128h16v-16h-16V80h-92.688l-32-32H120v16h20.688l16,16H112v160h36.688l-16,16H112v16h27.312
				L171.312,240z M184,96h16v48h-16V96z M128,224V96h40v64h48V96h40v20.688l-29.656,29.656l11.312,11.312L256,139.312V224H128z"/>
			<rect x="32" y="256" width="64" height="16"/>
			<path d="M32,464h160V288H32V464z M48,304h128v144H48V304z"/>
			<rect x="208" y="288" width="144" height="16"/>
			<rect x="208" y="320" width="144" height="16"/>
			<rect x="208" y="352" width="144" height="16"/>
			<rect x="208" y="384" width="144" height="16"/>
			<rect x="208" y="416" width="144" height="16"/>
			<rect x="336" y="448" width="16" height="16"/>
			<rect x="208" y="448" width="112" height="16"/>
			<path d="M448,2.232l-48,67.2V448c0,26.472,21.528,48,48,48s48-21.528,48-48V69.44L448,2.232z M448,29.768L472.456,64h-48.912
				L448,29.768z M480,448c0,17.648-14.352,32-32,32s-32-14.352-32-32v-24h64V448z M480,408h-64v-16h64V408z M480,376h-24v-16h-16v16
				h-24V80h24v264h16V80h24V376z"/>
		</g>
	</g>
</g>
</svg>