<?xml version="1.0" encoding="iso-8859-1"?>
<!-- Uploaded to: SVG Repo, www.svgrepo.com, Generator: SVG Repo Mixer Tools -->
<svg fill="#000000" version="1.1" id="Layer_1" xmlns="http://www.w3.org/2000/svg" xmlns:xlink="http://www.w3.org/1999/xlink" 
	 viewBox="0 0 496 496" xml:space="preserve">
<g>
	<g>
		<g>
			<path d="M456,208H344c-22.056,0-40,17.944-40,40v68.248l-48-10.656v-19.768c23.344-16.848,38.8-43.88,39.832-74.56
				C316.544,189.392,328,160.976,328,130.744V96c0-20.256-15.144-37.056-34.704-39.648C276.512,21.96,241.632,0,203.072,0h-13.464
				c-26.016,0-51.664,8.8-72.208,24.776C88.544,47.216,72,81.056,72,117.608V128v2.744V232c0,13.232,10.768,24,24,24h20.984
				c6.816,11.744,16.04,21.896,27.016,29.816v19.768L81.44,319.48C33.488,330.144,0,371.88,0,421.008V496h344h112
				c22.056,0,40-17.944,40-40V248C496,225.944,478.056,208,456,208z M304,332.64v25.144l-17.408-29.016L304,332.64z M96,240
				c-4.416,0-8-3.584-8-8v-42.296c4.504,7.704,9.896,14.928,16.168,21.552c0.336,10.056,2.224,19.696,5.432,28.744H96z M115.264,152
				H104v33.304c-10.376-16.144-16-34.912-16-54.56V128v-10.392c0-31.584,14.296-60.824,39.224-80.208
				C144.976,23.6,167.136,16,189.608,16h13.464c33.808,0,64.256,20.08,77.576,51.152l2.08,4.848H288c13.232,0,24,10.768,24,24
				v34.744c0,19.648-5.624,38.416-16,54.56V120h-17.536l-2.76,1.104C224.456,141.6,170.48,152,115.264,152z M136.152,256h33.32
				c3.312,9.288,12.112,16,22.528,16h16c13.232,0,24-10.768,24-24s-10.768-24-24-24h-16c-10.416,0-19.216,6.712-22.528,16h-42.744
				c-4.304-9.808-6.728-20.624-6.728-32v-40.024c55.016-0.568,108.816-11.12,160-31.368V208c0,44.112-35.888,80-80,80
				C173.912,288,150.768,275.384,136.152,256z M184,248c0-4.416,3.584-8,8-8h16c4.416,0,8,3.584,8,8s-3.584,8-8,8h-16
				C187.584,256,184,252.416,184,248z M96,480v-32H80v32H16v-58.992c0-41.56,28.336-76.888,68.904-85.896l28.496-6.336
				l-20.384,33.968l40.872,24.52l-23.728,55.36L160.008,480H96z M186.664,480l-56.832-42.624l24.272-56.64l-39.128-23.48
				l19.88-33.144l-0.136-0.08l11.568-2.568L189.528,480H186.664z M160,310.936v-15.768c12.192,5.608,25.712,8.832,40,8.832
				c14.288,0,27.808-3.224,40-8.84v15.768L200,457.6L160,310.936z M210.472,480l43.24-158.536l11.568,2.568l-0.144,0.08
				l19.88,33.144l-39.128,23.48l24.272,56.64L213.336,480H210.472z M240,480l49.832-37.376l-23.728-55.36L304,364.528V456
				c0,9.04,3.128,17.296,8.208,24H240z M480,456c0,13.232-10.768,24-24,24H344c-13.232,0-24-10.768-24-24v-8h160V456z M480,432H320
				V264h160V432z M320,248c0-13.232,10.768-24,24-24h112c13.232,0,24,10.768,24,24H320z"/>
			<rect x="376" y="456" width="48" height="16"/>
		</g>
	</g>
</g>
</svg>