<?xml version="1.0" encoding="iso-8859-1"?>
<!-- Uploaded to: SVG Repo, www.svgrepo.com, Generator: SVG Repo Mixer Tools -->
<svg fill="#000000" height="800px" width="800px" version="1.1" id="Layer_1" xmlns="http://www.w3.org/2000/svg" xmlns:xlink="http://www.w3.org/1999/xlink" 
	 viewBox="0 0 512.003 512.003" xml:space="preserve">
<g>
	<g>
		<path d="M417.343,104.229c-0.046-0.517-0.136-1.019-0.258-1.508c-2.643-14.522-7.15-28.316-13.361-40.893
			c-0.157-0.386-0.336-0.76-0.539-1.121c-3.686-7.305-7.947-14.192-12.762-20.553C370.822,14.26,344.507,0,316.325,0H195.677
			c-28.181,0-54.497,14.26-74.098,40.154c-18.986,25.079-29.441,58.276-29.441,93.473s10.456,68.394,29.441,93.473
			c19.601,25.894,45.917,40.154,74.098,40.154h83.924v215.247c0,16.266,13.235,29.502,29.502,29.502h81.262
			c16.266,0,29.502-13.234,29.502-29.502V133.627C419.866,123.615,418.991,113.776,417.343,104.229z M279.601,247.637h-29.715
			c7.171-5.692,13.85-12.562,19.889-20.539c3.584-4.735,6.863-9.761,9.826-15.032V247.637z M400.25,134.868h-74.672
			c-5.417,0-9.808,4.39-9.808,9.808s4.391,9.808,9.808,9.808h74.672v19.97h-19.967c-5.417,0-9.808,4.39-9.808,9.808
			s4.391,9.808,9.808,9.808h19.967v19.97h-19.967c-5.417,0-9.808,4.39-9.808,9.808s4.391,9.808,9.808,9.808h19.967v19.97h-19.967
			c-5.417,0-9.808,4.39-9.808,9.808c0,5.418,4.391,9.808,9.808,9.808h19.967v19.97h-74.672c-5.417,0-9.808,4.39-9.808,9.808
			s4.391,9.808,9.808,9.808h74.672v19.97h-19.967c-5.417,0-9.808,4.39-9.808,9.808s4.391,9.808,9.808,9.808h19.967v19.97h-19.967
			c-5.417,0-9.808,4.39-9.808,9.808s4.391,9.808,9.808,9.808h19.967v19.97h-19.967c-5.417,0-9.808,4.39-9.808,9.808
			s4.391,9.808,9.808,9.808h19.967v19.97h-74.672c-5.417,0-9.808,4.39-9.808,9.808c0,5.418,4.391,9.808,9.808,9.808h74.672V482.5
			c0,5.451-4.436,9.885-9.886,9.885h-81.262c-5.45,0-9.886-4.436-9.886-9.886V133.627c0-23.114-4.621-45.884-13.366-65.849
			c-2.173-4.961-7.957-7.221-12.919-5.049c-4.961,2.173-7.222,7.957-5.049,12.919c7.666,17.505,11.718,37.554,11.718,57.981
			c0,62.866-37.649,114.012-83.924,114.012c-46.275,0-83.924-51.144-83.924-114.012S149.4,19.615,195.677,19.615h120.648
			c24.111,0,45.877,13.89,61.199,36.083h-12.661c-5.417,0-9.808,4.39-9.808,9.808s4.391,9.808,9.808,9.808h23.552
			c2.768,6.293,5.103,12.974,6.948,19.97h-17.558c-5.416,0-9.808,4.39-9.808,9.808s4.391,9.808,9.808,9.808h21.308
			c0.744,6.095,1.139,12.349,1.139,18.726V134.868z"/>
	</g>
</g>
<g>
	<g>
		<path d="M195.677,80.639c-23.431,0-42.495,23.77-42.495,52.988c0,29.218,19.064,52.988,42.495,52.988
			c23.431,0,42.495-23.77,42.495-52.988S219.108,80.639,195.677,80.639z M195.677,166.998c-12.401,0-22.879-15.283-22.879-33.372
			s10.477-33.372,22.879-33.372c12.402,0,22.88,15.283,22.88,33.372C218.556,151.715,208.079,166.998,195.677,166.998z"/>
	</g>
</g>
<g>
	<g>
		<circle cx="331.293" cy="65.503" r="9.808"/>
	</g>
</g>
<g>
	<g>
		<circle cx="255.995" cy="39.944" r="9.808"/>
	</g>
</g>
<g>
	<g>
		<circle cx="344.239" cy="105.087" r="9.808"/>
	</g>
</g>
<g>
	<g>
		<circle cx="346.723" cy="184.268" r="9.808"/>
	</g>
</g>
<g>
	<g>
		<circle cx="346.723" cy="223.852" r="9.808"/>
	</g>
</g>
<g>
	<g>
		<circle cx="346.723" cy="263.436" r="9.808"/>
	</g>
</g>
<g>
	<g>
		<circle cx="346.723" cy="342.604" r="9.808"/>
	</g>
</g>
<g>
	<g>
		<circle cx="346.723" cy="382.188" r="9.808"/>
	</g>
</g>
<g>
	<g>
		<circle cx="346.723" cy="421.771" r="9.808"/>
	</g>
</g>
</svg>